<mxfile host="65bd71144e">
    <diagram id="i0pTCXeIQb-E2TddnQIm" name="Page-1">
        <mxGraphModel dx="1968" dy="542" grid="0" gridSize="10" guides="1" tooltips="1" connect="1" arrows="1" fold="1" page="1" pageScale="1" pageWidth="850" pageHeight="1100" math="0" shadow="0">
            <root>
                <mxCell id="0"/>
                <mxCell id="1" parent="0"/>
                <mxCell id="2" value="public" style="rounded=1;whiteSpace=wrap;html=1;fillColor=#60a917;fontColor=#ffffff;strokeColor=#2D7600;fontSize=24;" parent="1" vertex="1">
                    <mxGeometry x="-805" y="50" width="120" height="60" as="geometry"/>
                </mxCell>
                <mxCell id="3" value="src&lt;br style=&quot;font-size: 24px;&quot;&gt;" style="rounded=1;whiteSpace=wrap;html=1;fillColor=#60a917;fontColor=#ffffff;strokeColor=#2D7600;fontSize=24;" parent="1" vertex="1">
                    <mxGeometry x="-805" y="150" width="120" height="60" as="geometry"/>
                </mxCell>
                <mxCell id="5" value="index.html" style="rounded=1;whiteSpace=wrap;html=1;fillColor=#0050ef;fontColor=#ffffff;strokeColor=#001DBC;fontSize=24;" parent="1" vertex="1">
                    <mxGeometry x="-605" y="50" width="130" height="60" as="geometry"/>
                </mxCell>
                <mxCell id="6" value="" style="edgeStyle=none;html=1;fontSize=24;strokeWidth=2;" parent="1" source="2" target="5" edge="1">
                    <mxGeometry relative="1" as="geometry"/>
                </mxCell>
                <mxCell id="11" style="edgeStyle=none;html=1;fontSize=24;strokeWidth=2;" parent="1" source="7" target="5" edge="1">
                    <mxGeometry relative="1" as="geometry"/>
                </mxCell>
                <mxCell id="7" value="index.js" style="rounded=1;whiteSpace=wrap;html=1;fillColor=#0050ef;fontColor=#ffffff;strokeColor=#001DBC;fontSize=24;" parent="1" vertex="1">
                    <mxGeometry x="-600" y="150" width="120" height="60" as="geometry"/>
                </mxCell>
                <mxCell id="8" value="" style="edgeStyle=none;html=1;fontSize=24;strokeWidth=2;" parent="1" source="3" target="7" edge="1">
                    <mxGeometry relative="1" as="geometry"/>
                </mxCell>
                <mxCell id="9" value="app.js" style="rounded=1;whiteSpace=wrap;html=1;fillColor=#f0a30a;fontColor=#000000;strokeColor=#BD7000;fontSize=24;" parent="1" vertex="1">
                    <mxGeometry x="-600" y="250" width="120" height="60" as="geometry"/>
                </mxCell>
                <mxCell id="12" style="edgeStyle=none;html=1;entryX=0;entryY=0.5;entryDx=0;entryDy=0;fontSize=24;strokeWidth=2;" parent="1" source="3" target="9" edge="1">
                    <mxGeometry relative="1" as="geometry">
                        <Array as="points">
                            <mxPoint x="-645" y="180"/>
                            <mxPoint x="-645" y="280"/>
                        </Array>
                    </mxGeometry>
                </mxCell>
                <mxCell id="10" value="" style="edgeStyle=none;html=1;fontSize=24;strokeWidth=2;" parent="1" source="7" target="9" edge="1">
                    <mxGeometry relative="1" as="geometry"/>
                </mxCell>
                <mxCell id="17" value="Legenda" style="swimlane;fontSize=14;" vertex="1" parent="1">
                    <mxGeometry x="-242" y="50" width="170" height="206" as="geometry">
                        <mxRectangle x="490" y="55" width="130" height="23" as="alternateBounds"/>
                    </mxGeometry>
                </mxCell>
                <mxCell id="18" value="" style="whiteSpace=wrap;html=1;fillColor=#60a917;strokeColor=#2D7600;fontColor=#ffffff;" vertex="1" parent="17">
                    <mxGeometry x="10" y="50" width="20" height="15" as="geometry"/>
                </mxCell>
                <mxCell id="19" value="" style="rounded=1;whiteSpace=wrap;html=1;fillColor=#0050ef;strokeColor=#001DBC;fontColor=#ffffff;" vertex="1" parent="17">
                    <mxGeometry x="10" y="85" width="20" height="15" as="geometry"/>
                </mxCell>
                <mxCell id="20" value="camadas/pacotes" style="text;html=1;align=left;verticalAlign=middle;resizable=0;points=[];autosize=1;strokeColor=none;fontSize=14;" vertex="1" parent="17">
                    <mxGeometry x="34" y="45" width="130" height="20" as="geometry"/>
                </mxCell>
                <mxCell id="21" value="arquivos principais" style="text;html=1;align=left;verticalAlign=middle;resizable=0;points=[];autosize=1;strokeColor=none;fontSize=14;" vertex="1" parent="17">
                    <mxGeometry x="34" y="80" width="130" height="20" as="geometry"/>
                </mxCell>
                <mxCell id="22" value="componentes" style="text;html=1;align=left;verticalAlign=middle;resizable=0;points=[];autosize=1;strokeColor=none;fontSize=14;" vertex="1" parent="17">
                    <mxGeometry x="34" y="114" width="100" height="20" as="geometry"/>
                </mxCell>
                <mxCell id="23" value="" style="rounded=1;whiteSpace=wrap;html=1;fillColor=#fa6800;strokeColor=#C73500;fontColor=#000000;" vertex="1" parent="17">
                    <mxGeometry x="10" y="119" width="20" height="15" as="geometry"/>
                </mxCell>
                <mxCell id="24" value="pages" style="text;html=1;align=left;verticalAlign=middle;resizable=0;points=[];autosize=1;strokeColor=none;fontSize=14;" vertex="1" parent="17">
                    <mxGeometry x="34" y="144" width="50" height="20" as="geometry"/>
                </mxCell>
                <mxCell id="25" value="" style="rounded=1;whiteSpace=wrap;html=1;fillColor=#a20025;strokeColor=#6F0000;fontColor=#ffffff;" vertex="1" parent="17">
                    <mxGeometry x="10" y="149" width="20" height="15" as="geometry"/>
                </mxCell>
                <mxCell id="26" value="" style="rounded=1;whiteSpace=wrap;html=1;fillColor=#008a00;strokeColor=#005700;fontColor=#ffffff;arcSize=50;" vertex="1" parent="17">
                    <mxGeometry x="10" y="174" width="20" height="15" as="geometry"/>
                </mxCell>
                <mxCell id="27" value="props" style="text;html=1;align=left;verticalAlign=middle;resizable=0;points=[];autosize=1;strokeColor=none;fontSize=14;" vertex="1" parent="17">
                    <mxGeometry x="34" y="171" width="50" height="20" as="geometry"/>
                </mxCell>
            </root>
        </mxGraphModel>
    </diagram>
</mxfile>